<svg xmlns="http://www.w3.org/2000/svg" width="138" height="138">
  <path fill="#66ad1c" d="M117.8 117.8C131.3 104.3 138 88 138 69c0-19.1-6.8-35.3-20.3-48.8C104.3 6.7 88 0 69 0S33.7 6.7 20.2 20.2 0 49.9 0 69c0 19 6.7 35.3 20.2 48.8S50 138 69 138s35.3-6.7 48.8-20.2m-51-96.6c.1.1.2.2.2.3v72.4c.1 2.7 1.1 5.1 3 7 .4.4.8.8 1.3 1.1 1.7 1.3 3.8 1.9 6.1 1.9 2.8 0 5.3-1 7.3-3.1 1.9-1.9 2.9-4.2 3-6.9V80.1c0-1.4-.5-2.5-1.5-3.5S84 75 82.6 75s-2.6.5-3.6 1.6l-.4.4s-.1 0-.1.1c0 0-.1 0-.1.1-.1.1-.2.1-.3.1-.1 0-.2 0-.3-.1L71.6 71s0-.1-.1-.1c0 0 0-.1-.1-.1 0-.1-.1-.2-.1-.3 0-.1 0-.2.1-.3l.1-.1s0-.1.1-.1l.3-.3.5-.4c2.7-2.6 6-3.9 9.7-4l.7-.1c1.7 0 3.4.3 4.9.9 1.9.7 3.6 1.8 5.2 3.4 2.8 2.8 4.2 6.1 4.3 10v14.4c0 .7-.1 1.4-.1 2.1-.5 4.3-2.4 8.1-5.6 11.3-1.2 1.2-2.4 2.2-3.7 3-2.9 1.8-6.1 2.8-9.7 2.9h-1c-2 0-3.9-.3-5.7-.9-2.9-.9-5.6-2.6-7.9-4.9-3.7-3.7-5.7-8.2-5.8-13.4V30.2c0-.1 0-.2.1-.3l8.7-8.7c.1-.1.2-.1.3-.1-.2 0-.1 0 0 .1M53.1 34.9c.1.1.2.2.2.3v12.3c0 .1 0 .2-.1.3L42.3 58.5c-.9 1-1.4 2.2-1.4 3.6 0 1.3.4 2.5 1.3 3.4l6.9 6.9c1 1 1.8 2.1 2.4 3.3.1.3.2.5.3.8.8 1.7 1.2 3.6 1.3 5.7v.8c-.1 2.1-.5 4-1.3 5.7-.6 1.4-1.5 2.8-2.8 4l-2.9 2.9s0 .1-.1.1c0 0-.1 0-.1.1-.1 0-.2.1-.3.1-.1 0-.2 0-.3-.1l-6.1-6.1-.1-.1s0-.1-.1-.1c0-.1-.1-.1-.1-.2s0-.3.1-.4l2.6-2.5.2-.2.2-.2c.9-1 1.3-2.1 1.3-3.4 0-1.4-.5-2.5-1.4-3.5l-7-7c-.9-1-1.6-2-2.2-3.1l-.4-.8c-.8-1.8-1.3-3.9-1.3-6.1 0-2.2.4-4.3 1.3-6.1.6-1.4 1.5-2.6 2.5-3.8l17.3-17.3c.1-.1.2-.1.3-.1.5 0 .6.1.7.1z"/>
</svg>
